<svg width="700" height="300" viewBox="0 0 700 300" fill="none" xmlns="http://www.w3.org/2000/svg">
<g clip-path="url(#clip0_261_23)">
<path d="M0 150C0 67.1573 67.1573 0 150 0H700V150C700 232.843 632.843 300 550 300H0V150Z" fill="#FDCE83"/>
<circle cx="15" cy="293" r="74" fill="#5B5B5B"/>
<circle cx="15.0002" cy="293" r="54.6462" fill="#3E3E3E"/>
<circle cx="15.0002" cy="293" r="40.9846" fill="#212121"/>
<circle cx="689" cy="10" r="74" fill="#5B5B5B"/>
<circle cx="689" cy="10.0002" r="54.6462" fill="#3E3E3E"/>
<circle cx="689" cy="10.0002" r="40.9846" fill="#212121"/>
<path d="M352.076 51H348.924C329.636 51 314 66.6126 314 85.8717V127.858C314 147.117 329.636 162.73 348.924 162.73H352.076C371.364 162.73 387 147.117 387 127.858V85.8717C387 66.6126 371.364 51 352.076 51Z" fill="white" stroke="white" stroke-width="5.76" stroke-miterlimit="10"/>
<path d="M357.006 120.539C351.434 126.124 341.777 122.494 341.313 114.724L338.726 114.662C340.422 129.012 360.172 129.492 362.053 114.934C361.234 114.934 360.415 114.948 359.595 114.948C359.42 117.058 358.503 119.039 357.006 120.539Z" fill="#FDCE83"/>
<path d="M328.667 91.0503C328.667 91.0503 332.674 87.535 332.895 87.6359C333.116 87.7368 340.963 97.2081 340.723 97.3908C340.482 97.5735 333.381 97.0908 328.667 91.0503Z" fill="#FDCE83"/>
<path d="M324.706 95.8665C324.706 95.8665 326.817 93.0085 326.932 92.9403C327.047 92.8721 335.975 102.545 334.822 102.485C333.67 102.425 329.701 103.423 324.706 95.8665Z" fill="#FDCE83"/>
<path d="M321.254 103.036C321.254 103.036 322.45 99.8046 322.581 99.7037C322.712 99.6028 328.847 106.794 328.847 106.794C328.847 106.794 324.815 107.157 321.254 103.036Z" fill="#FDCE83"/>
<path d="M332.818 68.0088L327.355 79.28L332.332 82.7952L343.5 80.3708L336.702 68.8569L332.818 68.0088Z" fill="#FDCE83"/>
<path d="M359.417 85.0997L360.952 84.9825C360.714 85.6751 359.892 85.7161 359.619 86.4033C360.93 86.4715 362.189 86.4497 363.424 86.6187C365.931 86.9623 367.72 88.3723 368.547 90.7421C369.375 93.112 369.094 95.5855 367.119 97.2654C363.675 100.197 360.018 102.867 356.109 105.897C356.109 103.238 356.109 100.95 356.109 98.6644C356.109 97.9663 356.134 97.2763 355.29 96.9381C355.08 97.6199 355.358 98.269 355.399 98.9508C354.758 98.5962 354.58 97.8817 353.93 97.2927V99.4062L353.657 99.4744L352.564 97.4563L352.136 99.728C351.589 99.1253 351.63 98.3344 351.27 97.7126C350.797 98.2962 350.797 99.0762 350.388 99.8671C350.216 99.0489 350.073 98.3808 349.934 97.7099C349.131 100.293 349.598 102.968 349.331 105.916C347.807 104.391 346.466 103.025 345.092 101.692C344.819 101.435 344.589 100.827 344.147 101.127C343.528 101.578 342.977 102.115 342.508 102.72C342.35 102.913 342.757 103.153 342.94 103.333C343.759 104.121 344.578 104.89 345.25 105.973C343.505 105.973 341.76 106.009 340.017 105.957C339.659 105.929 339.3 105.982 338.965 106.111C338.631 106.24 338.329 106.443 338.083 106.704C334.396 110.426 329.873 112.063 324.684 111.959C323.318 111.932 321.953 111.918 320.587 111.973C319.847 112 319.659 111.725 319.683 111.029C319.811 108.302 320.343 105.608 321.262 103.036C323.25 105.218 325.503 106.66 328.855 106.788C326.793 104.762 325.031 102.951 323.168 101.236C322.423 100.549 322.349 99.9707 322.857 99.1471C323.499 98.1108 324.061 97.0254 324.714 95.8746C327.828 98.5744 330.095 102.42 334.82 102.485C334.934 101.997 334.506 101.863 334.29 101.645C331.892 99.2235 329.491 96.8018 327.047 94.4265C326.468 93.862 326.372 93.4911 326.978 92.8938C327.85 92.0348 328.53 90.5512 329.581 90.4394C330.556 90.3276 331.272 91.8548 332.124 92.6348C333.126 93.5565 334.036 94.5983 335.087 95.4464C336.638 96.7194 338.594 97.3965 340.602 97.3554C338.938 95.6919 337.488 94.241 336.032 92.7929C334.577 91.3448 333.151 89.9131 331.692 88.4732C335.516 85.3179 335.516 85.3179 338.837 88.6341C339.383 89.1795 340.009 89.6567 340.476 90.2703C341.129 91.1185 341.765 91.2903 342.661 90.434C342.09 90.0358 341.314 90.3685 340.697 89.8449L342.524 89.1386C341.978 88.5741 341.159 88.7759 340.654 88.1541L342.8 87.7832L340.749 86.5533L343.098 86.4115L341.402 85.1215C342.063 84.8488 342.584 85.1706 343.114 85.1215L343.448 85.1788C343.398 85.097 343.349 85.0125 343.303 84.9279C342.912 84.3498 342.311 84.5816 341.801 84.5761C337.977 84.5461 334.153 84.5925 330.33 84.5134C327.937 84.467 326.192 83.2317 325.187 81.0827C324.154 78.8846 324.255 76.572 325.913 74.8539C327.213 73.5067 327.552 72.2059 327.694 70.436C328.049 66.0726 333.429 63.8746 337.065 66.4517C337.856 67.0608 338.595 67.7349 339.274 68.467C342.626 71.7996 345.97 75.1394 349.306 78.4865C349.702 78.8819 350.144 79.6237 350.429 78.3228L351.204 80.5427L352.084 78.2492C352.258 79.1437 352.392 79.82 352.562 80.6872C352.98 79.9209 353.315 79.3237 353.84 78.3556V81.0172L355.397 79.0128C355.301 79.8309 355.23 80.4609 355.154 81.1318C355.812 81.2109 355.91 80.3355 356.519 80.4445C356.792 80.8563 356.456 81.219 356.421 81.6063C356.421 81.729 356.407 81.849 356.399 81.9717L356.708 81.8517C357.164 81.7236 357.42 81.1836 358.117 81.17C357.844 81.7863 357.625 82.2853 357.281 83.0789L359.551 81.9881C359.005 82.7844 358.655 83.3216 358.267 83.8971C359.043 84.0471 359.603 83.518 360.436 83.4798L359.166 84.8488L358.966 85.1979L359.417 85.0997ZM339.733 75.6748C337.821 73.6513 336.183 71.7941 334.415 70.0815C333.727 69.4188 332.85 69.7624 332.315 70.5451C331.78 71.3278 331.9 72.2714 332.722 72.6668C334.943 73.7304 337.248 74.6221 339.733 75.6748ZM338.16 80.0955L338.217 79.8882C335.975 78.961 333.727 78.0419 331.49 77.0984C330.736 76.7793 330.056 76.8257 329.507 77.4338C329.294 77.6417 329.149 77.9104 329.094 78.2032C329.039 78.496 329.075 78.7988 329.199 79.0701C329.537 79.8418 330.141 80.1064 330.939 80.1009C333.348 80.09 335.754 80.0955 338.16 80.0955ZM360.9 96.1146C361.949 95.3401 362.768 94.7864 363.527 94.1592C364.139 93.6547 364.369 92.992 363.978 92.223C363.836 91.8846 363.578 91.6073 363.251 91.4401C362.923 91.273 362.547 91.2267 362.189 91.3094C361.822 91.3544 361.486 91.5363 361.248 91.8185C361.01 92.1008 360.888 92.4625 360.905 92.8311C360.886 93.8238 360.9 94.8164 360.9 96.1146Z" fill="#212120"/>
<path d="M371.29 94.1482C373.688 91.3339 376.072 88.5004 378.503 85.7105C379.123 84.9988 379.973 84.9197 380.65 85.6396C381.385 86.4196 381.196 87.2459 380.377 87.8568C377.435 90.0385 374.475 92.1956 371.519 94.361L371.29 94.1482Z" fill="#212120"/>
<path d="M370.364 92.5695C369.919 88.607 369.501 85.0208 369.116 81.4292C368.977 80.1311 369.498 79.3729 370.452 79.3539C371.405 79.3348 372.038 80.1311 371.869 81.3774C371.388 84.9826 371.211 88.637 370.364 92.5695Z" fill="#212120"/>
<path d="M355.296 110.871C356.197 110.958 356.779 111.479 356.792 112.423C356.806 113.448 356.172 114.029 355.167 114.026C354.96 114.04 354.752 114.009 354.558 113.936C354.364 113.864 354.187 113.75 354.04 113.604C353.893 113.458 353.779 113.282 353.705 113.088C353.632 112.894 353.6 112.687 353.613 112.48C353.608 111.501 354.181 110.901 355.296 110.871Z" fill="#212120"/>
<path d="M354.345 108.624C354.29 109.674 353.739 110.299 352.755 110.315C351.772 110.331 351.133 109.685 351.133 108.703C351.119 108.498 351.149 108.292 351.219 108.099C351.289 107.905 351.399 107.728 351.541 107.579C351.683 107.43 351.855 107.313 352.045 107.233C352.236 107.154 352.44 107.115 352.646 107.119C353.649 107.075 354.206 107.67 354.345 108.624Z" fill="#212120"/>
<path d="M349.052 108.728C349 109.718 348.443 110.301 347.525 110.328C346.529 110.361 345.887 109.739 345.887 108.728C345.887 107.716 346.526 107.091 347.539 107.143C348.465 107.187 348.992 107.776 349.052 108.728Z" fill="#212120"/>
<path d="M351.802 112.458C351.69 113.494 351.117 114.059 350.109 114.023C349.902 114.031 349.695 113.994 349.503 113.915C349.311 113.836 349.139 113.717 348.997 113.565C348.855 113.414 348.747 113.235 348.68 113.039C348.613 112.842 348.589 112.634 348.61 112.428C348.64 111.455 349.23 110.827 350.289 110.887C351.262 110.942 351.723 111.544 351.802 112.458Z" fill="#212120"/>
<path d="M346.673 112.412C346.589 113.541 346.015 114.073 345.089 114.078C344.068 114.078 343.472 113.454 343.508 112.442C343.541 111.517 344.087 110.928 345.073 110.937C346.127 110.945 346.58 111.575 346.673 112.412Z" fill="#212120"/>
<path d="M365.885 129.115C352.595 142.996 328.91 133.225 328.776 114.389C325.936 114.309 323.093 114.231 320.247 114.154C320.26 116.109 320.432 118.06 320.763 119.988C320.927 120.978 321.194 121.471 322.224 121.602C323.043 121.706 323.267 122.42 322.675 122.936C321.899 123.623 321.984 124.329 322.317 125.164C323.715 128.583 325.687 131.739 328.148 134.496C328.618 135.041 329.025 134.929 329.563 134.769C330.745 134.406 331.166 134.818 330.887 136.015C330.784 136.457 330.546 136.86 331.081 137.286C334.109 139.726 337.551 141.603 341.244 142.827C341.962 143.062 342.449 143.029 342.962 142.41C343.656 141.573 344 141.655 344.229 142.699C344.401 143.471 344.776 143.741 345.549 143.853C349.183 144.4 352.886 144.317 356.493 143.61C357.219 143.468 357.858 143.493 357.989 142.47C358.156 141.207 358.571 141.12 359.483 142.055C359.92 142.503 360.273 142.582 360.882 142.355C364.577 140.948 367.98 138.868 370.916 136.222C371.405 135.794 371.359 135.404 371.189 134.889C370.793 133.64 370.993 133.44 372.254 133.749C372.721 133.863 373.104 134.005 373.511 133.495C375.953 130.511 377.841 127.115 379.085 123.467C379.358 122.649 379.386 122.049 378.61 121.52C378.091 121.163 377.982 120.688 378.771 120.588C379.864 120.448 380.09 119.862 380.221 118.853C380.419 117.361 380.523 115.858 380.533 114.353C377.683 114.522 374.837 114.652 371.995 114.743C371.834 120.129 369.653 125.258 365.885 129.115Z" fill="#212120"/>
<path d="M361.507 124.728C352.248 134.51 335.238 127.938 334.995 114.575L331.589 114.482C332.954 138.62 367.42 138.969 369.19 114.831C368.048 114.858 366.907 114.882 365.767 114.902C365.576 118.582 364.063 122.07 361.507 124.728Z" fill="#212120"/>
<path d="M346.068 115.709C346.84 117.71 348.405 118.818 350.437 118.793C352.688 118.747 354.955 117.157 355.081 114.94C351.951 114.923 348.823 114.877 345.693 114.817C345.833 115.107 345.958 115.405 346.068 115.709Z" fill="#212120"/>
<path d="M238.337 196.228C237.273 196.228 236.253 196.089 235.278 195.81C234.303 195.519 233.517 195.145 232.922 194.689L233.967 192.371C234.537 192.776 235.208 193.112 235.981 193.378C236.766 193.631 237.558 193.758 238.356 193.758C238.964 193.758 239.452 193.701 239.819 193.587C240.199 193.46 240.478 193.289 240.655 193.074C240.832 192.859 240.921 192.612 240.921 192.333C240.921 191.978 240.782 191.7 240.503 191.497C240.224 191.282 239.857 191.111 239.401 190.984C238.945 190.845 238.438 190.718 237.881 190.604C237.336 190.477 236.785 190.325 236.228 190.148C235.683 189.971 235.183 189.743 234.727 189.464C234.271 189.185 233.897 188.818 233.606 188.362C233.327 187.906 233.188 187.323 233.188 186.614C233.188 185.854 233.391 185.164 233.796 184.543C234.214 183.91 234.835 183.409 235.658 183.042C236.494 182.662 237.539 182.472 238.793 182.472C239.629 182.472 240.452 182.573 241.263 182.776C242.074 182.966 242.789 183.257 243.41 183.65L242.46 185.987C241.839 185.632 241.219 185.373 240.598 185.208C239.977 185.031 239.369 184.942 238.774 184.942C238.179 184.942 237.691 185.012 237.311 185.151C236.931 185.29 236.659 185.474 236.494 185.702C236.329 185.917 236.247 186.171 236.247 186.462C236.247 186.804 236.386 187.083 236.665 187.298C236.944 187.501 237.311 187.665 237.767 187.792C238.223 187.919 238.723 188.045 239.268 188.172C239.825 188.299 240.376 188.444 240.921 188.609C241.478 188.774 241.985 188.995 242.441 189.274C242.897 189.553 243.264 189.92 243.543 190.376C243.834 190.832 243.98 191.408 243.98 192.105C243.98 192.852 243.771 193.536 243.353 194.157C242.935 194.778 242.308 195.278 241.472 195.658C240.649 196.038 239.604 196.228 238.337 196.228ZM250.738 196.152C249.649 196.152 248.68 195.924 247.831 195.468C246.995 195.012 246.33 194.391 245.836 193.606C245.355 192.808 245.114 191.902 245.114 190.889C245.114 189.863 245.355 188.957 245.836 188.172C246.33 187.374 246.995 186.753 247.831 186.31C248.68 185.854 249.649 185.626 250.738 185.626C251.815 185.626 252.778 185.854 253.626 186.31C254.475 186.753 255.14 187.368 255.621 188.153C256.103 188.938 256.343 189.85 256.343 190.889C256.343 191.902 256.103 192.808 255.621 193.606C255.14 194.391 254.475 195.012 253.626 195.468C252.778 195.924 251.815 196.152 250.738 196.152ZM250.738 193.72C251.232 193.72 251.676 193.606 252.068 193.378C252.461 193.15 252.771 192.827 252.999 192.409C253.227 191.978 253.341 191.472 253.341 190.889C253.341 190.294 253.227 189.787 252.999 189.369C252.771 188.951 252.461 188.628 252.068 188.4C251.676 188.172 251.232 188.058 250.738 188.058C250.244 188.058 249.801 188.172 249.408 188.4C249.016 188.628 248.699 188.951 248.458 189.369C248.23 189.787 248.116 190.294 248.116 190.889C248.116 191.472 248.23 191.978 248.458 192.409C248.699 192.827 249.016 193.15 249.408 193.378C249.801 193.606 250.244 193.72 250.738 193.72ZM271.416 185.626C272.226 185.626 272.942 185.791 273.563 186.12C274.196 186.437 274.69 186.931 275.045 187.602C275.412 188.261 275.596 189.109 275.596 190.148V196H272.632V190.604C272.632 189.781 272.461 189.173 272.119 188.78C271.777 188.387 271.295 188.191 270.675 188.191C270.244 188.191 269.858 188.292 269.516 188.495C269.174 188.685 268.908 188.976 268.718 189.369C268.528 189.762 268.433 190.262 268.433 190.87V196H265.469V190.604C265.469 189.781 265.298 189.173 264.956 188.78C264.626 188.387 264.151 188.191 263.531 188.191C263.1 188.191 262.714 188.292 262.372 188.495C262.03 188.685 261.764 188.976 261.574 189.369C261.384 189.762 261.289 190.262 261.289 190.87V196H258.325V185.778H261.156V188.571L260.624 187.754C260.978 187.057 261.479 186.532 262.125 186.177C262.783 185.81 263.531 185.626 264.367 185.626C265.304 185.626 266.121 185.867 266.818 186.348C267.527 186.817 267.996 187.539 268.224 188.514L267.179 188.229C267.521 187.431 268.065 186.798 268.813 186.329C269.573 185.86 270.44 185.626 271.416 185.626ZM283.399 196.152C282.234 196.152 281.208 195.924 280.321 195.468C279.447 195.012 278.77 194.391 278.288 193.606C277.807 192.808 277.566 191.902 277.566 190.889C277.566 189.863 277.801 188.957 278.269 188.172C278.751 187.374 279.403 186.753 280.226 186.31C281.05 185.854 281.981 185.626 283.019 185.626C284.02 185.626 284.919 185.841 285.717 186.272C286.528 186.69 287.168 187.298 287.636 188.096C288.105 188.881 288.339 189.825 288.339 190.927C288.339 191.041 288.333 191.174 288.32 191.326C288.308 191.465 288.295 191.598 288.282 191.725H279.979V189.996H286.724L285.584 190.509C285.584 189.977 285.477 189.515 285.261 189.122C285.046 188.729 284.748 188.425 284.368 188.21C283.988 187.982 283.545 187.868 283.038 187.868C282.532 187.868 282.082 187.982 281.689 188.21C281.309 188.425 281.012 188.736 280.796 189.141C280.581 189.534 280.473 190.002 280.473 190.547V191.003C280.473 191.56 280.594 192.054 280.834 192.485C281.088 192.903 281.436 193.226 281.879 193.454C282.335 193.669 282.867 193.777 283.475 193.777C284.02 193.777 284.495 193.695 284.9 193.53C285.318 193.365 285.698 193.118 286.04 192.789L287.617 194.499C287.149 195.031 286.56 195.443 285.85 195.734C285.141 196.013 284.324 196.152 283.399 196.152ZM295.177 196.152C294.087 196.152 293.118 195.924 292.27 195.468C291.434 195.012 290.769 194.391 290.275 193.606C289.793 192.808 289.553 191.902 289.553 190.889C289.553 189.863 289.793 188.957 290.275 188.172C290.769 187.374 291.434 186.753 292.27 186.31C293.118 185.854 294.087 185.626 295.177 185.626C296.253 185.626 297.216 185.854 298.065 186.31C298.913 186.753 299.578 187.368 300.06 188.153C300.541 188.938 300.782 189.85 300.782 190.889C300.782 191.902 300.541 192.808 300.06 193.606C299.578 194.391 298.913 195.012 298.065 195.468C297.216 195.924 296.253 196.152 295.177 196.152ZM295.177 193.72C295.671 193.72 296.114 193.606 296.507 193.378C296.899 193.15 297.21 192.827 297.438 192.409C297.666 191.978 297.78 191.472 297.78 190.889C297.78 190.294 297.666 189.787 297.438 189.369C297.21 188.951 296.899 188.628 296.507 188.4C296.114 188.172 295.671 188.058 295.177 188.058C294.683 188.058 294.239 188.172 293.847 188.4C293.454 188.628 293.137 188.951 292.897 189.369C292.669 189.787 292.555 190.294 292.555 190.889C292.555 191.472 292.669 191.978 292.897 192.409C293.137 192.827 293.454 193.15 293.847 193.378C294.239 193.606 294.683 193.72 295.177 193.72ZM308.976 185.626C309.787 185.626 310.509 185.791 311.142 186.12C311.788 186.437 312.295 186.931 312.662 187.602C313.029 188.261 313.213 189.109 313.213 190.148V196H310.249V190.604C310.249 189.781 310.065 189.173 309.698 188.78C309.343 188.387 308.837 188.191 308.178 188.191C307.709 188.191 307.285 188.292 306.905 188.495C306.538 188.685 306.246 188.983 306.031 189.388C305.828 189.793 305.727 190.313 305.727 190.946V196H302.763V185.778H305.594V188.609L305.062 187.754C305.429 187.07 305.955 186.544 306.639 186.177C307.323 185.81 308.102 185.626 308.976 185.626ZM321.047 196.152C319.882 196.152 318.856 195.924 317.969 195.468C317.095 195.012 316.417 194.391 315.936 193.606C315.455 192.808 315.214 191.902 315.214 190.889C315.214 189.863 315.448 188.957 315.917 188.172C316.398 187.374 317.051 186.753 317.874 186.31C318.697 185.854 319.628 185.626 320.667 185.626C321.668 185.626 322.567 185.841 323.365 186.272C324.176 186.69 324.815 187.298 325.284 188.096C325.753 188.881 325.987 189.825 325.987 190.927C325.987 191.041 325.981 191.174 325.968 191.326C325.955 191.465 325.943 191.598 325.93 191.725H317.627V189.996H324.372L323.232 190.509C323.232 189.977 323.124 189.515 322.909 189.122C322.694 188.729 322.396 188.425 322.016 188.21C321.636 187.982 321.193 187.868 320.686 187.868C320.179 187.868 319.73 187.982 319.337 188.21C318.957 188.425 318.659 188.736 318.444 189.141C318.229 189.534 318.121 190.002 318.121 190.547V191.003C318.121 191.56 318.241 192.054 318.482 192.485C318.735 192.903 319.084 193.226 319.527 193.454C319.983 193.669 320.515 193.777 321.123 193.777C321.668 193.777 322.143 193.695 322.548 193.53C322.966 193.365 323.346 193.118 323.688 192.789L325.265 194.499C324.796 195.031 324.207 195.443 323.498 195.734C322.789 196.013 321.972 196.152 321.047 196.152ZM332.581 199.838C332.125 199.838 331.688 199.787 331.27 199.686C330.852 199.597 330.497 199.458 330.206 199.268L331.004 197.121C331.346 197.362 331.764 197.482 332.258 197.482C332.625 197.482 332.917 197.355 333.132 197.102C333.36 196.861 333.474 196.494 333.474 196V185.778H336.438V195.981C336.438 197.159 336.102 198.096 335.431 198.793C334.76 199.49 333.81 199.838 332.581 199.838ZM334.956 184.353C334.411 184.353 333.968 184.195 333.626 183.878C333.284 183.561 333.113 183.169 333.113 182.7C333.113 182.231 333.284 181.839 333.626 181.522C333.968 181.205 334.411 181.047 334.956 181.047C335.501 181.047 335.944 181.199 336.286 181.503C336.628 181.794 336.799 182.174 336.799 182.643C336.799 183.137 336.628 183.549 336.286 183.878C335.957 184.195 335.513 184.353 334.956 184.353ZM343.48 196.152C342.632 196.152 341.872 195.987 341.2 195.658C340.542 195.329 340.029 194.828 339.661 194.157C339.294 193.473 339.11 192.605 339.11 191.554V185.778H342.074V191.117C342.074 191.966 342.252 192.593 342.606 192.998C342.974 193.391 343.487 193.587 344.145 193.587C344.601 193.587 345.007 193.492 345.361 193.302C345.716 193.099 345.995 192.795 346.197 192.39C346.4 191.972 346.501 191.453 346.501 190.832V185.778H349.465V196H346.653V193.188L347.166 194.005C346.824 194.714 346.318 195.253 345.646 195.62C344.988 195.975 344.266 196.152 343.48 196.152ZM355.65 196.152C354.776 196.152 353.934 196.051 353.123 195.848C352.325 195.633 351.692 195.367 351.223 195.05L352.211 192.922C352.68 193.213 353.231 193.454 353.864 193.644C354.51 193.821 355.144 193.91 355.764 193.91C356.448 193.91 356.93 193.828 357.208 193.663C357.5 193.498 357.645 193.27 357.645 192.979C357.645 192.738 357.531 192.561 357.303 192.447C357.088 192.32 356.797 192.225 356.429 192.162C356.062 192.099 355.657 192.035 355.213 191.972C354.783 191.909 354.346 191.826 353.902 191.725C353.459 191.611 353.054 191.446 352.686 191.231C352.319 191.016 352.021 190.724 351.793 190.357C351.578 189.99 351.47 189.515 351.47 188.932C351.47 188.286 351.654 187.716 352.021 187.222C352.401 186.728 352.946 186.342 353.655 186.063C354.365 185.772 355.213 185.626 356.201 185.626C356.898 185.626 357.607 185.702 358.329 185.854C359.051 186.006 359.653 186.228 360.134 186.519L359.146 188.628C358.652 188.337 358.152 188.14 357.645 188.039C357.151 187.925 356.67 187.868 356.201 187.868C355.543 187.868 355.061 187.957 354.757 188.134C354.453 188.311 354.301 188.539 354.301 188.818C354.301 189.071 354.409 189.261 354.624 189.388C354.852 189.515 355.15 189.616 355.517 189.692C355.885 189.768 356.284 189.838 356.714 189.901C357.158 189.952 357.601 190.034 358.044 190.148C358.488 190.262 358.887 190.427 359.241 190.642C359.609 190.845 359.906 191.13 360.134 191.497C360.362 191.852 360.476 192.32 360.476 192.903C360.476 193.536 360.286 194.1 359.906 194.594C359.526 195.075 358.975 195.455 358.253 195.734C357.544 196.013 356.676 196.152 355.65 196.152ZM366.485 196.152C365.282 196.152 364.344 195.848 363.673 195.24C363.002 194.619 362.666 193.701 362.666 192.485V183.517H365.63V192.447C365.63 192.878 365.744 193.213 365.972 193.454C366.2 193.682 366.51 193.796 366.903 193.796C367.372 193.796 367.771 193.669 368.1 193.416L368.898 195.506C368.594 195.721 368.227 195.886 367.796 196C367.378 196.101 366.941 196.152 366.485 196.152ZM361.089 188.286V186.006H368.176V188.286H361.089ZM376.304 196V185.55C376.304 184.397 376.646 183.479 377.33 182.795C378.014 182.098 378.989 181.75 380.256 181.75C380.686 181.75 381.098 181.794 381.491 181.883C381.896 181.972 382.238 182.111 382.517 182.301L381.738 184.448C381.573 184.334 381.389 184.245 381.187 184.182C380.984 184.119 380.769 184.087 380.541 184.087C380.11 184.087 379.774 184.214 379.534 184.467C379.306 184.708 379.192 185.075 379.192 185.569V186.519L379.268 187.792V196H376.304ZM374.727 188.286V186.006H381.814V188.286H374.727ZM383.486 196V185.778H386.45V196H383.486ZM384.968 184.353C384.423 184.353 383.98 184.195 383.638 183.878C383.296 183.561 383.125 183.169 383.125 182.7C383.125 182.231 383.296 181.839 383.638 181.522C383.98 181.205 384.423 181.047 384.968 181.047C385.512 181.047 385.956 181.199 386.298 181.503C386.64 181.794 386.811 182.174 386.811 182.643C386.811 183.137 386.64 183.549 386.298 183.878C385.968 184.195 385.525 184.353 384.968 184.353ZM389.191 196V181.902H392.155V196H389.191ZM394.906 196V181.902H397.87V196H394.906ZM405.693 196.152C404.528 196.152 403.502 195.924 402.615 195.468C401.741 195.012 401.064 194.391 400.582 193.606C400.101 192.808 399.86 191.902 399.86 190.889C399.86 189.863 400.095 188.957 400.563 188.172C401.045 187.374 401.697 186.753 402.52 186.31C403.344 185.854 404.275 185.626 405.313 185.626C406.314 185.626 407.213 185.841 408.011 186.272C408.822 186.69 409.462 187.298 409.93 188.096C410.399 188.881 410.633 189.825 410.633 190.927C410.633 191.041 410.627 191.174 410.614 191.326C410.602 191.465 410.589 191.598 410.576 191.725H402.273V189.996H409.018L407.878 190.509C407.878 189.977 407.771 189.515 407.555 189.122C407.34 188.729 407.042 188.425 406.662 188.21C406.282 187.982 405.839 187.868 405.332 187.868C404.826 187.868 404.376 187.982 403.983 188.21C403.603 188.425 403.306 188.736 403.09 189.141C402.875 189.534 402.767 190.002 402.767 190.547V191.003C402.767 191.56 402.888 192.054 403.128 192.485C403.382 192.903 403.73 193.226 404.173 193.454C404.629 193.669 405.161 193.777 405.769 193.777C406.314 193.777 406.789 193.695 407.194 193.53C407.612 193.365 407.992 193.118 408.334 192.789L409.911 194.499C409.443 195.031 408.854 195.443 408.144 195.734C407.435 196.013 406.618 196.152 405.693 196.152ZM416.996 196.152C416.033 196.152 415.165 195.937 414.393 195.506C413.62 195.063 413.006 194.448 412.55 193.663C412.106 192.878 411.885 191.953 411.885 190.889C411.885 189.812 412.106 188.881 412.55 188.096C413.006 187.311 413.62 186.703 414.393 186.272C415.165 185.841 416.033 185.626 416.996 185.626C417.857 185.626 418.611 185.816 419.257 186.196C419.903 186.576 420.403 187.152 420.758 187.925C421.112 188.698 421.29 189.686 421.29 190.889C421.29 192.08 421.119 193.068 420.777 193.853C420.435 194.626 419.941 195.202 419.295 195.582C418.661 195.962 417.895 196.152 416.996 196.152ZM417.509 193.72C417.99 193.72 418.427 193.606 418.82 193.378C419.212 193.15 419.523 192.827 419.751 192.409C419.991 191.978 420.112 191.472 420.112 190.889C420.112 190.294 419.991 189.787 419.751 189.369C419.523 188.951 419.212 188.628 418.82 188.4C418.427 188.172 417.99 188.058 417.509 188.058C417.015 188.058 416.571 188.172 416.179 188.4C415.786 188.628 415.469 188.951 415.229 189.369C415.001 189.787 414.887 190.294 414.887 190.889C414.887 191.472 415.001 191.978 415.229 192.409C415.469 192.827 415.786 193.15 416.179 193.378C416.571 193.606 417.015 193.72 417.509 193.72ZM420.188 196V193.91L420.245 190.87L420.055 187.849V181.902H423.019V196H420.188ZM435.323 196.152C434.12 196.152 433.182 195.848 432.511 195.24C431.84 194.619 431.504 193.701 431.504 192.485V183.517H434.468V192.447C434.468 192.878 434.582 193.213 434.81 193.454C435.038 193.682 435.348 193.796 435.741 193.796C436.21 193.796 436.609 193.669 436.938 193.416L437.736 195.506C437.432 195.721 437.065 195.886 436.634 196C436.216 196.101 435.779 196.152 435.323 196.152ZM429.927 188.286V186.006H437.014V188.286H429.927ZM445.613 185.626C446.423 185.626 447.145 185.791 447.779 186.12C448.425 186.437 448.931 186.931 449.299 187.602C449.666 188.261 449.85 189.109 449.85 190.148V196H446.886V190.604C446.886 189.781 446.702 189.173 446.335 188.78C445.98 188.387 445.473 188.191 444.815 188.191C444.346 188.191 443.922 188.292 443.542 188.495C443.174 188.685 442.883 188.983 442.668 189.388C442.465 189.793 442.364 190.313 442.364 190.946V196H439.4V181.902H442.364V188.609L441.699 187.754C442.066 187.07 442.592 186.544 443.276 186.177C443.96 185.81 444.739 185.626 445.613 185.626ZM457.684 196.152C456.518 196.152 455.492 195.924 454.606 195.468C453.732 195.012 453.054 194.391 452.573 193.606C452.091 192.808 451.851 191.902 451.851 190.889C451.851 189.863 452.085 188.957 452.554 188.172C453.035 187.374 453.687 186.753 454.511 186.31C455.334 185.854 456.265 185.626 457.304 185.626C458.304 185.626 459.204 185.841 460.002 186.272C460.812 186.69 461.452 187.298 461.921 188.096C462.389 188.881 462.624 189.825 462.624 190.927C462.624 191.041 462.617 191.174 462.605 191.326C462.592 191.465 462.579 191.598 462.567 191.725H454.264V189.996H461.009L459.869 190.509C459.869 189.977 459.761 189.515 459.546 189.122C459.33 188.729 459.033 188.425 458.653 188.21C458.273 187.982 457.829 187.868 457.323 187.868C456.816 187.868 456.366 187.982 455.974 188.21C455.594 188.425 455.296 188.736 455.081 189.141C454.865 189.534 454.758 190.002 454.758 190.547V191.003C454.758 191.56 454.878 192.054 455.119 192.485C455.372 192.903 455.72 193.226 456.164 193.454C456.62 193.669 457.152 193.777 457.76 193.777C458.304 193.777 458.779 193.695 459.185 193.53C459.603 193.365 459.983 193.118 460.325 192.789L461.902 194.499C461.433 195.031 460.844 195.443 460.135 195.734C459.425 196.013 458.608 196.152 457.684 196.152ZM265.39 219.228C264.364 219.228 263.408 219.063 262.521 218.734C261.647 218.392 260.887 217.911 260.241 217.29C259.595 216.669 259.089 215.941 258.721 215.105C258.367 214.269 258.189 213.351 258.189 212.35C258.189 211.349 258.367 210.431 258.721 209.595C259.089 208.759 259.595 208.031 260.241 207.41C260.9 206.789 261.666 206.314 262.54 205.985C263.414 205.643 264.371 205.472 265.409 205.472C266.562 205.472 267.601 205.675 268.525 206.08C269.463 206.473 270.248 207.055 270.881 207.828L268.905 209.652C268.449 209.133 267.943 208.746 267.385 208.493C266.828 208.227 266.22 208.094 265.561 208.094C264.941 208.094 264.371 208.195 263.851 208.398C263.332 208.601 262.882 208.892 262.502 209.272C262.122 209.652 261.825 210.102 261.609 210.621C261.407 211.14 261.305 211.717 261.305 212.35C261.305 212.983 261.407 213.56 261.609 214.079C261.825 214.598 262.122 215.048 262.502 215.428C262.882 215.808 263.332 216.099 263.851 216.302C264.371 216.505 264.941 216.606 265.561 216.606C266.22 216.606 266.828 216.479 267.385 216.226C267.943 215.96 268.449 215.561 268.905 215.029L270.881 216.853C270.248 217.626 269.463 218.215 268.525 218.62C267.601 219.025 266.556 219.228 265.39 219.228ZM277.262 219.152C276.173 219.152 275.204 218.924 274.355 218.468C273.519 218.012 272.854 217.391 272.36 216.606C271.879 215.808 271.638 214.902 271.638 213.889C271.638 212.863 271.879 211.957 272.36 211.172C272.854 210.374 273.519 209.753 274.355 209.31C275.204 208.854 276.173 208.626 277.262 208.626C278.339 208.626 279.302 208.854 280.15 209.31C280.999 209.753 281.664 210.368 282.145 211.153C282.627 211.938 282.867 212.85 282.867 213.889C282.867 214.902 282.627 215.808 282.145 216.606C281.664 217.391 280.999 218.012 280.15 218.468C279.302 218.924 278.339 219.152 277.262 219.152ZM277.262 216.72C277.756 216.72 278.2 216.606 278.592 216.378C278.985 216.15 279.295 215.827 279.523 215.409C279.751 214.978 279.865 214.472 279.865 213.889C279.865 213.294 279.751 212.787 279.523 212.369C279.295 211.951 278.985 211.628 278.592 211.4C278.2 211.172 277.756 211.058 277.262 211.058C276.768 211.058 276.325 211.172 275.932 211.4C275.54 211.628 275.223 211.951 274.982 212.369C274.754 212.787 274.64 213.294 274.64 213.889C274.64 214.472 274.754 214.978 274.982 215.409C275.223 215.827 275.54 216.15 275.932 216.378C276.325 216.606 276.768 216.72 277.262 216.72ZM291.061 208.626C291.872 208.626 292.594 208.791 293.227 209.12C293.873 209.437 294.38 209.931 294.747 210.602C295.115 211.261 295.298 212.109 295.298 213.148V219H292.334V213.604C292.334 212.781 292.151 212.173 291.783 211.78C291.429 211.387 290.922 211.191 290.263 211.191C289.795 211.191 289.37 211.292 288.99 211.495C288.623 211.685 288.332 211.983 288.116 212.388C287.914 212.793 287.812 213.313 287.812 213.946V219H284.848V208.778H287.679V211.609L287.147 210.754C287.515 210.07 288.04 209.544 288.724 209.177C289.408 208.81 290.187 208.626 291.061 208.626ZM301.424 219.152C300.55 219.152 299.708 219.051 298.897 218.848C298.099 218.633 297.466 218.367 296.997 218.05L297.985 215.922C298.454 216.213 299.005 216.454 299.638 216.644C300.284 216.821 300.918 216.91 301.538 216.91C302.222 216.91 302.704 216.828 302.982 216.663C303.274 216.498 303.419 216.27 303.419 215.979C303.419 215.738 303.305 215.561 303.077 215.447C302.862 215.32 302.571 215.225 302.203 215.162C301.836 215.099 301.431 215.035 300.987 214.972C300.557 214.909 300.12 214.826 299.676 214.725C299.233 214.611 298.828 214.446 298.46 214.231C298.093 214.016 297.795 213.724 297.567 213.357C297.352 212.99 297.244 212.515 297.244 211.932C297.244 211.286 297.428 210.716 297.795 210.222C298.175 209.728 298.72 209.342 299.429 209.063C300.139 208.772 300.987 208.626 301.975 208.626C302.672 208.626 303.381 208.702 304.103 208.854C304.825 209.006 305.427 209.228 305.908 209.519L304.92 211.628C304.426 211.337 303.926 211.14 303.419 211.039C302.925 210.925 302.444 210.868 301.975 210.868C301.317 210.868 300.835 210.957 300.531 211.134C300.227 211.311 300.075 211.539 300.075 211.818C300.075 212.071 300.183 212.261 300.398 212.388C300.626 212.515 300.924 212.616 301.291 212.692C301.659 212.768 302.058 212.838 302.488 212.901C302.932 212.952 303.375 213.034 303.818 213.148C304.262 213.262 304.661 213.427 305.015 213.642C305.383 213.845 305.68 214.13 305.908 214.497C306.136 214.852 306.25 215.32 306.25 215.903C306.25 216.536 306.06 217.1 305.68 217.594C305.3 218.075 304.749 218.455 304.027 218.734C303.318 219.013 302.45 219.152 301.424 219.152ZM312.392 219.152C311.543 219.152 310.783 218.987 310.112 218.658C309.453 218.329 308.94 217.828 308.573 217.157C308.206 216.473 308.022 215.605 308.022 214.554V208.778H310.986V214.117C310.986 214.966 311.163 215.593 311.518 215.998C311.885 216.391 312.398 216.587 313.057 216.587C313.513 216.587 313.918 216.492 314.273 216.302C314.628 216.099 314.906 215.795 315.109 215.39C315.312 214.972 315.413 214.453 315.413 213.832V208.778H318.377V219H315.565V216.188L316.078 217.005C315.736 217.714 315.229 218.253 314.558 218.62C313.899 218.975 313.177 219.152 312.392 219.152ZM321.123 219V204.902H324.087V219H321.123ZM331.778 219.152C330.575 219.152 329.638 218.848 328.966 218.24C328.295 217.619 327.959 216.701 327.959 215.485V206.517H330.923V215.447C330.923 215.878 331.037 216.213 331.265 216.454C331.493 216.682 331.804 216.796 332.196 216.796C332.665 216.796 333.064 216.669 333.393 216.416L334.191 218.506C333.887 218.721 333.52 218.886 333.089 219C332.671 219.101 332.234 219.152 331.778 219.152ZM326.382 211.286V209.006H333.469V211.286H326.382ZM342.125 219V217.005L341.935 216.568V212.996C341.935 212.363 341.739 211.869 341.346 211.514C340.966 211.159 340.377 210.982 339.579 210.982C339.035 210.982 338.496 211.071 337.964 211.248C337.445 211.413 337.002 211.641 336.634 211.932L335.57 209.861C336.128 209.468 336.799 209.164 337.584 208.949C338.37 208.734 339.168 208.626 339.978 208.626C341.536 208.626 342.746 208.993 343.607 209.728C344.469 210.463 344.899 211.609 344.899 213.167V219H342.125ZM339.009 219.152C338.211 219.152 337.527 219.019 336.957 218.753C336.387 218.474 335.95 218.101 335.646 217.632C335.342 217.163 335.19 216.638 335.19 216.055C335.19 215.447 335.336 214.915 335.627 214.459C335.931 214.003 336.406 213.648 337.052 213.395C337.698 213.129 338.541 212.996 339.579 212.996H342.296V214.725H339.902C339.206 214.725 338.724 214.839 338.458 215.067C338.205 215.295 338.078 215.58 338.078 215.922C338.078 216.302 338.224 216.606 338.515 216.834C338.819 217.049 339.231 217.157 339.75 217.157C340.244 217.157 340.688 217.043 341.08 216.815C341.473 216.574 341.758 216.226 341.935 215.77L342.391 217.138C342.176 217.797 341.783 218.297 341.213 218.639C340.643 218.981 339.909 219.152 339.009 219.152ZM351.762 219.152C350.559 219.152 349.621 218.848 348.95 218.24C348.279 217.619 347.943 216.701 347.943 215.485V206.517H350.907V215.447C350.907 215.878 351.021 216.213 351.249 216.454C351.477 216.682 351.787 216.796 352.18 216.796C352.649 216.796 353.048 216.669 353.377 216.416L354.175 218.506C353.871 218.721 353.504 218.886 353.073 219C352.655 219.101 352.218 219.152 351.762 219.152ZM346.366 211.286V209.006H353.453V211.286H346.366ZM355.839 219V208.778H358.803V219H355.839ZM357.321 207.353C356.776 207.353 356.333 207.195 355.991 206.878C355.649 206.561 355.478 206.169 355.478 205.7C355.478 205.231 355.649 204.839 355.991 204.522C356.333 204.205 356.776 204.047 357.321 204.047C357.865 204.047 358.309 204.199 358.651 204.503C358.993 204.794 359.164 205.174 359.164 205.643C359.164 206.137 358.993 206.549 358.651 206.878C358.321 207.195 357.878 207.353 357.321 207.353ZM366.418 219.152C365.328 219.152 364.359 218.924 363.511 218.468C362.675 218.012 362.01 217.391 361.516 216.606C361.034 215.808 360.794 214.902 360.794 213.889C360.794 212.863 361.034 211.957 361.516 211.172C362.01 210.374 362.675 209.753 363.511 209.31C364.359 208.854 365.328 208.626 366.418 208.626C367.494 208.626 368.457 208.854 369.306 209.31C370.154 209.753 370.819 210.368 371.301 211.153C371.782 211.938 372.023 212.85 372.023 213.889C372.023 214.902 371.782 215.808 371.301 216.606C370.819 217.391 370.154 218.012 369.306 218.468C368.457 218.924 367.494 219.152 366.418 219.152ZM366.418 216.72C366.912 216.72 367.355 216.606 367.748 216.378C368.14 216.15 368.451 215.827 368.679 215.409C368.907 214.978 369.021 214.472 369.021 213.889C369.021 213.294 368.907 212.787 368.679 212.369C368.451 211.951 368.14 211.628 367.748 211.4C367.355 211.172 366.912 211.058 366.418 211.058C365.924 211.058 365.48 211.172 365.088 211.4C364.695 211.628 364.378 211.951 364.138 212.369C363.91 212.787 363.796 213.294 363.796 213.889C363.796 214.472 363.91 214.978 364.138 215.409C364.378 215.827 364.695 216.15 365.088 216.378C365.48 216.606 365.924 216.72 366.418 216.72ZM380.217 208.626C381.027 208.626 381.749 208.791 382.383 209.12C383.029 209.437 383.535 209.931 383.903 210.602C384.27 211.261 384.454 212.109 384.454 213.148V219H381.49V213.604C381.49 212.781 381.306 212.173 380.939 211.78C380.584 211.387 380.077 211.191 379.419 211.191C378.95 211.191 378.526 211.292 378.146 211.495C377.778 211.685 377.487 211.983 377.272 212.388C377.069 212.793 376.968 213.313 376.968 213.946V219H374.004V208.778H376.835V211.609L376.303 210.754C376.67 210.07 377.196 209.544 377.88 209.177C378.564 208.81 379.343 208.626 380.217 208.626ZM395.58 211.685H401.964V214.155H395.58V211.685ZM395.808 219H392.73V205.7H402.781V208.17H395.808V219ZM409.279 219.152C408.19 219.152 407.221 218.924 406.372 218.468C405.536 218.012 404.871 217.391 404.377 216.606C403.896 215.808 403.655 214.902 403.655 213.889C403.655 212.863 403.896 211.957 404.377 211.172C404.871 210.374 405.536 209.753 406.372 209.31C407.221 208.854 408.19 208.626 409.279 208.626C410.356 208.626 411.318 208.854 412.167 209.31C413.016 209.753 413.681 210.368 414.162 211.153C414.643 211.938 414.884 212.85 414.884 213.889C414.884 214.902 414.643 215.808 414.162 216.606C413.681 217.391 413.016 218.012 412.167 218.468C411.318 218.924 410.356 219.152 409.279 219.152ZM409.279 216.72C409.773 216.72 410.216 216.606 410.609 216.378C411.002 216.15 411.312 215.827 411.54 215.409C411.768 214.978 411.882 214.472 411.882 213.889C411.882 213.294 411.768 212.787 411.54 212.369C411.312 211.951 411.002 211.628 410.609 211.4C410.216 211.172 409.773 211.058 409.279 211.058C408.785 211.058 408.342 211.172 407.949 211.4C407.556 211.628 407.24 211.951 406.999 212.369C406.771 212.787 406.657 213.294 406.657 213.889C406.657 214.472 406.771 214.978 406.999 215.409C407.24 215.827 407.556 216.15 407.949 216.378C408.342 216.606 408.785 216.72 409.279 216.72ZM416.865 219V208.778H419.696V211.666L419.297 210.83C419.601 210.108 420.089 209.563 420.76 209.196C421.431 208.816 422.248 208.626 423.211 208.626V211.362C423.084 211.349 422.97 211.343 422.869 211.343C422.768 211.33 422.66 211.324 422.546 211.324C421.735 211.324 421.077 211.558 420.57 212.027C420.076 212.483 419.829 213.199 419.829 214.174V219H416.865ZM438.083 208.626C438.894 208.626 439.609 208.791 440.23 209.12C440.863 209.437 441.357 209.931 441.712 210.602C442.079 211.261 442.263 212.109 442.263 213.148V219H439.299V213.604C439.299 212.781 439.128 212.173 438.786 211.78C438.444 211.387 437.963 211.191 437.342 211.191C436.911 211.191 436.525 211.292 436.183 211.495C435.841 211.685 435.575 211.976 435.385 212.369C435.195 212.762 435.1 213.262 435.1 213.87V219H432.136V213.604C432.136 212.781 431.965 212.173 431.623 211.78C431.294 211.387 430.819 211.191 430.198 211.191C429.767 211.191 429.381 211.292 429.039 211.495C428.697 211.685 428.431 211.976 428.241 212.369C428.051 212.762 427.956 213.262 427.956 213.87V219H424.992V208.778H427.823V211.571L427.291 210.754C427.646 210.057 428.146 209.532 428.792 209.177C429.451 208.81 430.198 208.626 431.034 208.626C431.971 208.626 432.788 208.867 433.485 209.348C434.194 209.817 434.663 210.539 434.891 211.514L433.846 211.229C434.188 210.431 434.733 209.798 435.48 209.329C436.24 208.86 437.108 208.626 438.083 208.626Z" fill="#212121"/>
</g>
<defs>
<clipPath id="clip0_261_23">
<rect width="700" height="300" fill="white"/>
</clipPath>
</defs>
</svg>
