
<svg width="141" height="217" viewBox="0 0 141 217" fill="none" xmlns="http://www.w3.org/2000/svg">
        <path d="M75.2285 9.35869H69.7762C36.4096 9.35869 9.36072 36.367 9.36072 69.6834V142.317C9.36072 175.633 36.4096 202.641 69.7762 202.641H75.2285C108.595 202.641 135.644 175.633 135.644 142.317V69.6834C135.644 36.367 108.595 9.35869 75.2285 9.35869Z" fill="white" stroke="white" stroke-width="5.76" stroke-miterlimit="10"/>
        <path d="M83.7567 129.654C74.1182 139.316 57.4115 133.037 56.6083 119.596L52.1339 119.488C55.068 144.312 89.2327 145.142 92.488 119.96C91.0706 119.96 89.6532 119.983 88.2358 119.983C87.9333 123.634 86.3466 127.06 83.7567 129.654Z" fill="#FDCE83"/>
        <path d="M34.7327 78.6423C34.7327 78.6423 41.6639 72.5612 42.0466 72.7358C42.4293 72.9103 56.0035 89.2948 55.5877 89.6108C55.172 89.9269 42.8876 89.0919 34.7327 78.6423Z" fill="#FDCE83"/>
        <path d="M27.8817 86.9737C27.8817 86.9737 31.5339 82.0296 31.7324 81.9116C31.9308 81.7937 47.3761 98.5272 45.3822 98.4234C43.3884 98.3197 36.5233 100.046 27.8817 86.9737Z" fill="#FDCE83"/>
        <path d="M21.9097 99.3764C21.9097 99.3764 23.9791 93.786 24.2059 93.6114C24.4327 93.4369 35.0445 105.877 35.0445 105.877C35.0445 105.877 28.0707 106.505 21.9097 99.3764Z" fill="#FDCE83"/>
        <path d="M41.9142 38.7827L32.4647 58.2808L41.0732 64.3619L60.3928 60.1679L48.6328 40.2499L41.9142 38.7827Z" fill="#FDCE83"/>
        <path d="M87.9286 68.3483L90.584 68.1455C90.1729 69.3438 88.7508 69.4145 88.2783 70.6034C90.5462 70.7213 92.7243 70.6836 94.8599 70.9761C99.1972 71.5705 102.292 74.0095 103.724 78.1092C105.155 82.2088 104.668 86.4877 101.252 89.3938C95.2945 94.4653 88.9681 99.0839 82.207 104.325C82.207 99.7255 82.207 95.7674 82.207 91.814C82.207 90.6063 82.2495 89.4127 80.7895 88.8277C80.4257 90.0071 80.9077 91.1299 80.9785 92.3093C79.8682 91.696 79.5611 90.46 78.4366 89.441V93.0972L77.9641 93.2151L76.0742 89.7241L75.3325 93.6539C74.3875 92.6113 74.4584 91.2431 73.8347 90.1675C73.0173 91.1771 73.0173 92.5264 72.3086 93.8945C72.0109 92.4792 71.7653 91.3234 71.5243 90.1628C70.1352 94.6304 70.9432 99.2585 70.4801 104.358C67.8437 101.721 65.5239 99.3575 63.1473 97.0506C62.6748 96.6071 62.278 95.5551 61.5125 96.074C60.4428 96.8551 59.4885 97.7825 58.6777 98.8292C58.4037 99.1641 59.1076 99.5793 59.4242 99.8906C60.8416 101.254 62.2591 102.584 63.4213 104.457C60.4022 104.457 57.3831 104.519 54.3687 104.429C53.7498 104.381 53.1281 104.472 52.5492 104.696C51.9703 104.92 51.449 105.27 51.0236 105.722C44.6452 112.161 36.821 114.992 27.8439 114.813C25.4816 114.765 23.1192 114.742 20.7568 114.836C19.4764 114.883 19.1504 114.407 19.1929 113.204C19.4144 108.485 20.3346 103.826 21.9238 99.3764C25.3634 103.151 29.2614 105.646 35.0586 105.868C31.4914 102.363 28.444 99.2302 25.2217 96.2627C23.9318 95.0739 23.8043 94.0737 24.6831 92.649C25.7934 90.8563 26.7667 88.9787 27.8959 86.9878C33.2821 91.6583 37.2037 98.3102 45.3775 98.4234C45.5759 97.579 44.8342 97.3478 44.4609 96.9704C40.3126 92.7811 36.1595 88.5918 31.9308 84.4827C30.9292 83.5062 30.7638 82.8646 31.8127 81.8314C33.3199 80.3453 34.4964 77.7789 36.3154 77.5855C38.0022 77.3921 39.24 80.034 40.7142 81.3832C42.4482 82.9778 44.0215 84.78 45.8405 86.2471C48.5237 88.4494 51.9072 89.6207 55.3798 89.5495C52.5024 86.6717 49.9936 84.1619 47.4753 81.6569C44.957 79.1518 42.4907 76.675 39.9677 74.1841C46.5823 68.7257 46.5823 68.7257 52.3276 74.4624C53.2726 75.406 54.3545 76.2316 55.1625 77.293C56.2917 78.7602 57.3926 79.0574 58.9423 77.5761C57.9548 76.8873 56.613 77.4629 55.5452 76.5571L58.706 75.3352C57.7611 74.3586 56.3437 74.7077 55.4696 73.6321L59.1832 72.9905L55.6349 70.8629L59.6982 70.6175L56.7642 68.3861C57.9076 67.9143 58.81 68.471 59.7266 68.3861L60.303 68.4851C60.218 68.3436 60.1329 68.1974 60.0526 68.0511C59.3769 67.051 58.3375 67.452 57.454 67.4425C50.8393 67.3906 44.2247 67.4708 37.61 67.334C33.4711 67.2538 30.452 65.1167 28.7133 61.3992C26.9273 57.5968 27.1021 53.5962 29.9701 50.6241C32.2191 48.2936 32.8049 46.0432 33.0506 42.9815C33.6648 35.4332 42.9726 31.6308 49.2613 36.089C50.6304 37.1427 51.909 38.3089 53.0836 39.5753C58.8824 45.3403 64.6671 51.1179 70.4376 56.908C71.1227 57.5921 71.8881 58.8753 72.3795 56.6249L73.7213 60.4651L75.2427 56.4976C75.5451 58.045 75.7766 59.2149 76.0695 60.7152C76.7924 59.3895 77.3735 58.3563 78.2807 56.6816V61.286L80.9738 57.8185C80.8084 59.2338 80.6856 60.3236 80.5533 61.4841C81.692 61.6209 81.8621 60.1066 82.9157 60.2953C83.3882 61.0077 82.807 61.6351 82.7456 62.305C82.7456 62.5173 82.722 62.7249 82.7078 62.9372L83.2417 62.7296C84.0307 62.5079 84.4749 61.5738 85.6797 61.5502C85.2072 62.6164 84.8292 63.4797 84.2339 64.8525L88.1602 62.9655C87.2152 64.343 86.6104 65.2724 85.9395 66.2678C87.2814 66.5273 88.2499 65.6121 89.691 65.546L87.494 67.9143L87.1491 68.5182L87.9286 68.3483ZM53.8773 52.0441C50.57 48.5436 47.7352 45.3309 44.6782 42.3682C43.4876 41.2218 41.971 41.8162 41.0449 43.1702C40.1188 44.5241 40.3267 46.1565 41.7489 46.8405C45.5901 48.6804 49.5778 50.2231 53.8773 52.0441ZM51.1559 59.6914L51.2551 59.3329C47.3761 57.7289 43.4876 56.139 39.618 54.5067C38.314 53.9547 37.1375 54.0349 36.1879 55.087C35.818 55.4466 35.5683 55.9114 35.4727 56.418C35.3772 56.9246 35.4405 57.4482 35.654 57.9176C36.2398 59.2527 37.284 59.7103 38.6636 59.7009C42.8309 59.682 46.9934 59.6914 51.1559 59.6914ZM90.4942 87.403C92.3085 86.0632 93.7259 85.1055 95.0394 84.0204C96.0978 83.1476 96.4946 82.0012 95.819 80.6709C95.5725 80.0855 95.1268 79.6058 94.5605 79.3167C93.9943 79.0275 93.3439 78.9474 92.7243 79.0905C92.0897 79.1683 91.5081 79.483 91.0962 79.9712C90.6843 80.4595 90.4726 81.0853 90.5036 81.7229C90.4706 83.4401 90.4942 85.1574 90.4942 87.403Z" fill="#212120"/>
        <path d="M108.467 84.0016C112.615 79.1329 116.74 74.2313 120.945 69.4051C122.018 68.1738 123.487 68.037 124.659 69.2824C125.93 70.6317 125.604 72.0611 124.186 73.1179C119.098 76.892 113.976 80.6237 108.864 84.3695L108.467 84.0016Z" fill="#212120"/>
        <path d="M106.866 81.27C106.095 74.4153 105.372 68.2115 104.706 61.9984C104.465 59.7528 105.368 58.4413 107.017 58.4082C108.666 58.3752 109.762 59.7528 109.469 61.9087C108.637 68.1455 108.33 74.4671 106.866 81.27Z" fill="#212120"/>
        <path d="M80.799 112.93C82.3581 113.081 83.3645 113.982 83.3881 115.615C83.4118 117.388 82.3156 118.393 80.5769 118.389C80.2186 118.412 79.8594 118.359 79.5232 118.233C79.187 118.107 78.8815 117.911 78.6272 117.658C78.3728 117.405 78.1754 117.101 78.048 116.765C77.9206 116.43 77.8663 116.072 77.8885 115.714C77.8791 114.02 78.8713 112.982 80.799 112.93Z" fill="#212120"/>
        <path d="M79.1547 109.043C79.0602 110.859 78.1058 111.94 76.4049 111.968C74.704 111.996 73.5984 110.878 73.5984 109.18C73.5748 108.824 73.6254 108.468 73.7468 108.133C73.8683 107.799 74.0581 107.493 74.3042 107.235C74.5503 106.977 74.8472 106.774 75.1763 106.637C75.5054 106.499 75.8594 106.432 76.2159 106.439C77.9499 106.363 78.9138 107.392 79.1547 109.043Z" fill="#212120"/>
        <path d="M69.9982 109.222C69.9084 110.935 68.9446 111.944 67.3571 111.991C65.6325 112.048 64.5222 110.972 64.5222 109.222C64.5222 107.472 65.6278 106.392 67.3807 106.481C68.9824 106.557 69.8943 107.576 69.9982 109.222Z" fill="#212120"/>
        <path d="M74.7561 115.676C74.5624 117.469 73.5702 118.445 71.8268 118.384C71.468 118.396 71.1108 118.332 70.7789 118.195C70.4471 118.059 70.1483 117.853 69.9027 117.592C69.6571 117.33 69.4702 117.019 69.3547 116.68C69.2392 116.341 69.1976 115.981 69.2329 115.624C69.2848 113.94 70.3054 112.855 72.1386 112.959C73.8206 113.053 74.6191 114.096 74.7561 115.676Z" fill="#212120"/>
        <path d="M65.883 115.596C65.7365 117.549 64.7443 118.469 63.1427 118.478C61.3756 118.478 60.3456 117.398 60.407 115.648C60.4637 114.048 61.4087 113.029 63.1143 113.043C64.9381 113.058 65.7224 114.147 65.883 115.596Z" fill="#212120"/>
        <path d="M99.1169 144.491C76.1263 168.504 35.1532 151.601 34.9217 119.016C30.0079 118.878 25.0895 118.742 20.1663 118.61C20.1892 121.993 20.4878 125.367 21.0592 128.701C21.3427 130.414 21.8058 131.268 23.587 131.494C25.0044 131.674 25.3918 132.91 24.3666 133.801C23.0247 134.99 23.1712 136.212 23.7476 137.656C26.1656 143.571 29.577 149.03 33.835 153.799C34.6476 154.743 35.3516 154.549 36.2824 154.271C38.3282 153.644 39.0558 154.356 38.5739 156.427C38.3944 157.191 37.9833 157.89 38.9094 158.626C44.1471 162.847 50.1021 166.094 56.4902 168.212C57.7328 168.618 58.5738 168.561 59.4621 167.49C60.6621 166.042 61.2575 166.183 61.6543 167.99C61.952 169.325 62.5993 169.792 63.9364 169.986C70.2244 170.932 76.6287 170.79 82.8685 169.566C84.1253 169.32 85.2309 169.363 85.4577 167.594C85.7459 165.41 86.464 165.259 88.0421 166.877C88.7981 167.65 89.4076 167.787 90.4612 167.396C96.8545 164.961 102.74 161.363 107.82 156.786C108.666 156.045 108.585 155.37 108.292 154.479C107.607 152.318 107.952 151.974 110.135 152.507C110.943 152.705 111.604 152.95 112.308 152.068C116.534 146.907 119.8 141.032 121.952 134.721C122.424 133.306 122.471 132.268 121.13 131.353C120.232 130.735 120.043 129.914 121.408 129.739C123.298 129.499 123.69 128.484 123.917 126.739C124.258 124.158 124.438 121.558 124.456 118.955C119.526 119.247 114.603 119.472 109.686 119.629C109.408 128.946 105.636 137.819 99.1169 144.491Z" fill="#212120"/>
        <path d="M91.5431 136.901C75.5261 153.823 46.1004 142.453 45.6799 119.337L39.7881 119.176C42.1505 160.932 101.772 161.536 104.834 119.78C102.859 119.827 100.885 119.868 98.9137 119.903C98.582 126.269 95.9655 132.303 91.5431 136.901Z" fill="#212120"/>
        <path d="M64.8341 121.299C66.1712 124.762 68.8784 126.678 72.3937 126.635C76.2869 126.555 80.2084 123.804 80.4258 119.969C75.0112 119.941 69.6013 119.86 64.1868 119.757C64.4292 120.259 64.6452 120.774 64.8341 121.299Z" fill="#212120"/>
</svg>