<svg width="16" height="13" viewBox="0 0 16 13" fill="none" xmlns="http://www.w3.org/2000/svg">
<rect width="16" height="12.3983" rx="6.19913" fill="#FDCE83"/>
<path fill-rule="evenodd" clip-rule="evenodd" d="M3.59094 3.43784C3.52827 3.41085 3.45547 3.42848 3.41218 3.48122C2.88136 4.12794 2.56274 4.95549 2.56274 5.85745C2.56274 6.34955 2.65758 6.81949 2.82998 7.25001C2.89372 7.40917 3.06698 7.49669 3.22518 7.4306V7.4306C3.70304 7.23108 4.17662 7.02189 4.6502 6.8127C4.93847 6.68536 5.22673 6.55803 5.51596 6.43288C5.53849 6.42306 5.56091 6.4106 5.58355 6.39801L5.58356 6.398C5.66336 6.35362 5.74591 6.30772 5.84624 6.37078V6.37078C5.8658 6.38574 5.85975 6.41717 5.83582 6.42297L5.82979 6.42443C5.82697 6.42512 5.82426 6.4262 5.82171 6.42758C5.78451 6.44773 5.74318 6.4581 5.70049 6.46881L5.70049 6.46881C5.68035 6.47387 5.65991 6.47899 5.63946 6.48526C5.56215 6.50895 5.58261 6.60019 5.66116 6.61932L5.70835 6.63081C5.78641 6.64981 5.79904 6.75551 5.72765 6.79238V6.79238C5.65181 6.83153 5.67419 6.94541 5.75888 6.95601V6.95601C5.8399 6.96616 5.86657 7.07174 5.79861 7.117L5.75414 7.14662C5.68549 7.19235 5.69819 7.28371 5.7803 7.27587C5.79949 7.27404 5.81866 7.27144 5.83787 7.26885C5.84591 7.26776 5.85397 7.26667 5.86203 7.26563C5.95691 7.25346 5.98555 7.35505 5.91784 7.42262V7.42262C5.84597 7.49433 5.88267 7.59652 5.97916 7.56494C5.98738 7.56225 5.99556 7.5595 6.00371 7.55676V7.55676C6.10314 7.52336 6.17135 7.62622 6.09338 7.69637C6.00413 7.77667 5.89297 7.76314 5.75212 7.68659C5.65401 7.6324 5.54722 7.5965 5.44043 7.56059L5.44043 7.56059L5.44042 7.56059L5.44042 7.56059L5.44041 7.56059C5.38703 7.54264 5.33364 7.52469 5.28134 7.50445C4.32751 7.13542 4.32722 7.1353 3.8442 8.1007C3.84398 8.10116 3.84418 8.10174 3.84466 8.10192V8.10192C3.84514 8.1021 3.84535 8.10266 3.84512 8.10311C3.80699 8.17739 3.76569 8.26043 3.7249 8.34384C3.67992 8.4358 3.6981 8.54664 3.77343 8.61596C4.44094 9.23023 5.33198 9.60532 6.31062 9.60532H7.31313C7.36641 9.60532 7.41482 9.57529 7.4415 9.52916V9.52916C7.48701 9.45578 7.55399 9.49293 7.61703 9.52789C7.63868 9.5399 7.65986 9.55164 7.67955 9.55857C7.69031 9.56256 7.70108 9.56656 7.71184 9.57056C7.77331 9.59344 7.83835 9.60532 7.90394 9.60532H8.4998C8.60967 9.60532 8.68326 9.49315 8.63878 9.39269V9.39269L8.63878 9.39268C8.5245 9.13458 8.41425 8.88558 8.34696 8.62389C8.3276 8.54861 8.41769 8.51131 8.46312 8.57438V8.57438L8.46316 8.57443L8.4633 8.57463L8.46367 8.57515L8.46382 8.57536V8.57536C8.50061 8.62648 8.57263 8.603 8.56507 8.54048C8.56313 8.52451 8.56107 8.50874 8.55903 8.49314C8.55554 8.46644 8.55211 8.44026 8.54953 8.41442C8.54015 8.3209 8.63488 8.2873 8.69472 8.35977V8.35977V8.35977C8.77088 8.45202 8.87283 8.38302 8.84499 8.26668C8.84155 8.2523 8.83807 8.23778 8.83454 8.22304V8.22304C8.82112 8.16711 8.88537 8.12572 8.93085 8.16095L9.16614 8.34318C9.18036 8.3542 9.20024 8.35418 9.21444 8.34313V8.34313C9.2287 8.33203 9.23358 8.31265 9.22628 8.29612L9.14286 8.10743C9.10836 8.02937 9.17871 7.95936 9.25142 8.00405V8.00405C9.28526 8.02484 9.31794 8.04493 9.3515 8.06165C9.40852 8.09005 9.44966 8.03191 9.41413 7.97904V7.97904V7.97904C9.32492 7.8463 9.45502 7.70904 9.53916 7.84505C9.56324 7.88397 9.58265 7.92801 9.60218 7.9723L9.60724 7.98376L9.884 8.60981C10.0312 8.94272 10.4983 8.96174 10.6734 8.64267V8.64267L10.6735 8.64256L10.6735 8.64254C11.0302 7.99272 11.3706 7.37264 11.6771 6.73505C11.9226 6.22652 11.7605 5.70824 11.3866 5.3083C11.0127 4.90835 10.532 4.7846 10.0022 4.93685C9.82365 4.98775 9.65094 5.05797 9.47415 5.12986C9.45775 5.13653 9.44131 5.14321 9.42482 5.14989C9.32712 5.18952 9.24073 5.11975 9.29655 5.03031V5.03031V5.03031C9.35115 4.94283 9.26421 4.88239 9.17335 4.93116L9.06999 4.98664L9.05623 4.99645C9.02984 5.01527 8.99357 4.99418 8.99688 4.96194V4.96194C8.99717 4.95907 8.99779 4.95625 8.99873 4.95352L9.0593 4.77739C9.0855 4.70121 9.01524 4.64693 8.9567 4.70228V4.70228C8.92703 4.73033 8.89801 4.75777 8.86625 4.78135C8.81067 4.82262 8.74893 4.76824 8.76098 4.70008L8.76764 4.66246C8.78296 4.57583 8.67403 4.52448 8.61695 4.59143V4.59143C8.56513 4.65221 8.46573 4.61606 8.46537 4.53619C8.46529 4.51745 8.46522 4.49912 8.46517 4.48098C8.46495 4.40269 8.3846 4.35849 8.34334 4.42502C8.33348 4.44093 8.32473 4.45706 8.31616 4.47285C8.2955 4.51094 8.27594 4.54701 8.24449 4.57299V4.57299C8.22218 4.5954 8.18161 4.58538 8.16888 4.55644C8.16783 4.55406 8.16677 4.55167 8.16572 4.54928C8.15678 4.52274 8.15459 4.49386 8.15241 4.46496C8.15216 4.46172 8.15192 4.45849 8.15167 4.45525C8.14319 4.34739 8.01545 4.33025 7.97998 4.43247V4.43247C7.96993 4.46144 7.95974 4.49081 7.94241 4.51529C7.91393 4.55552 7.85952 4.52824 7.84481 4.48119V4.48119L7.84467 4.48074C7.83767 4.45836 7.83066 4.43594 7.82358 4.4133C7.7979 4.33115 7.68005 4.335 7.65931 4.41853V4.41853C7.63985 4.49686 7.53216 4.50655 7.49953 4.43272V4.43272C7.46402 4.3524 7.34414 4.37425 7.33658 4.46175V4.46175V4.46175C7.32947 4.54413 7.22296 4.57277 7.17563 4.50497L7.15803 4.47977V4.47977C7.11408 4.41683 7.01516 4.45072 7.01904 4.52739L7.02137 4.57336C7.02522 4.64943 6.93209 4.68894 6.88006 4.63331V4.63331C6.82373 4.57309 6.64903 4.62494 6.57204 4.59541C6.5555 4.58906 6.53835 4.58145 6.52131 4.57389C6.50495 4.56663 6.48868 4.55941 6.47315 4.55341C5.5134 4.17938 4.55267 3.80752 3.59094 3.43784V3.43784ZM11.287 4.4467L11.2871 4.44685V4.44685C11.4019 4.64272 11.6576 4.53774 11.5897 4.32115C11.5463 4.18293 11.5022 4.04631 11.4584 3.91054L11.4584 3.91052L11.4584 3.91051L11.4584 3.9105C11.376 3.65518 11.2946 3.40288 11.2208 3.14862C11.1449 2.88559 10.9487 2.78306 10.7602 2.87027C10.5718 2.95748 10.5347 3.15468 10.6772 3.40196C10.8776 3.74761 11.0796 4.09252 11.287 4.4467ZM12.2684 5.75808C12.2491 5.75141 12.2384 5.73069 12.2442 5.71106C12.2981 5.52945 12.3516 5.34777 12.4052 5.16609C12.5763 4.5859 12.7474 4.00571 12.9261 3.42768C12.9874 3.23083 13.1496 3.14025 13.348 3.22424C13.5632 3.31515 13.5985 3.49661 13.4889 3.69011C13.1775 4.23947 12.8625 4.78716 12.5476 5.3348L12.3141 5.74099C12.3049 5.75689 12.2858 5.76406 12.2684 5.75808V5.75808ZM10.4628 6.83917C10.4628 6.83917 10.4628 6.83917 10.4628 6.83917C10.4614 6.84168 10.4599 6.8442 10.4584 6.84672C10.4088 6.93158 10.2829 6.92502 10.2425 6.8354C10.2393 6.82828 10.2361 6.82121 10.2329 6.81417L10.2329 6.81414L10.2329 6.81411L10.2329 6.8141C10.1651 6.66376 10.1054 6.53151 10.0512 6.39689C10.0151 6.32496 10.0074 6.24205 10.0298 6.16475C10.0522 6.08745 10.1029 6.02144 10.1719 5.97992C10.2361 5.93182 10.3152 5.90795 10.3953 5.91253C10.4754 5.91711 10.5513 5.94985 10.6096 6.00495C10.7553 6.124 10.768 6.27642 10.6906 6.43096C10.6242 6.56312 10.5493 6.69133 10.4629 6.83909L10.4628 6.83917V6.83917Z" fill="#212121"/>
</svg>
