<svg width="32" height="25" viewBox="0 0 32 25" fill="none" xmlns="http://www.w3.org/2000/svg">
<rect width="32" height="24.7965" rx="12.3983" fill="white"/>
<path fill-rule="evenodd" clip-rule="evenodd" d="M7.18212 6.87567C7.05671 6.82167 6.91103 6.85695 6.82439 6.96249C5.76273 8.25594 5.12549 9.91104 5.12549 11.715C5.12549 12.6991 5.31513 13.6389 5.65985 14.4998C5.78738 14.8183 6.13405 14.9934 6.45061 14.8612V14.8612C7.40631 14.4622 8.35346 14.0438 9.30061 13.6254C9.87715 13.3707 10.4537 13.1161 11.0322 12.8658C11.0772 12.8461 11.1221 12.8212 11.1674 12.796C11.327 12.7072 11.4921 12.6154 11.6927 12.7416V12.7416C11.7319 12.7715 11.7198 12.8343 11.6719 12.8459L11.6598 12.8489C11.6542 12.8502 11.6488 12.8524 11.6437 12.8552C11.5693 12.8955 11.4866 12.9162 11.4012 12.9376L11.4012 12.9376C11.3609 12.9477 11.3201 12.958 11.2792 12.9705C11.1246 13.0179 11.1655 13.2004 11.3226 13.2386L11.4169 13.2616C11.5731 13.2996 11.5983 13.511 11.4555 13.5848V13.5848C11.3039 13.6631 11.3486 13.8908 11.518 13.912V13.912C11.68 13.9323 11.7334 14.1435 11.5975 14.234L11.5085 14.2932C11.3712 14.3847 11.3966 14.5674 11.5608 14.5517C11.5992 14.5481 11.6376 14.5429 11.676 14.5377C11.6921 14.5355 11.7082 14.5333 11.7243 14.5313C11.9141 14.5069 11.9713 14.7101 11.8359 14.8452V14.8452C11.6922 14.9887 11.7656 15.193 11.9586 15.1299C11.975 15.1245 11.9914 15.119 12.0077 15.1135V15.1135C12.2065 15.0467 12.343 15.2524 12.187 15.3927C12.0085 15.5533 11.7862 15.5263 11.5045 15.3732C11.3083 15.2648 11.0947 15.193 10.8811 15.1212L10.881 15.1212C10.7743 15.0853 10.6675 15.0494 10.5629 15.0089C8.65526 14.2708 8.65468 14.2706 7.68865 16.2014C7.6882 16.2023 7.6886 16.2035 7.68956 16.2038V16.2038C7.69051 16.2042 7.69095 16.2053 7.69048 16.2062C7.6142 16.3548 7.53158 16.5209 7.44997 16.6878C7.36 16.8718 7.39637 17.0935 7.54708 17.2322C8.88207 18.4606 10.6641 19.2107 12.6212 19.2107H14.6264C14.733 19.2107 14.8298 19.1506 14.8832 19.0583V19.0583C14.9743 18.9116 15.1082 18.9859 15.2343 19.0558C15.2776 19.0798 15.32 19.1033 15.3593 19.1171C15.381 19.1251 15.4026 19.1332 15.4242 19.1412C15.5471 19.187 15.6772 19.2107 15.8083 19.2107H16.9998C17.2196 19.2107 17.3668 18.9863 17.2778 18.7854V18.7854L17.2778 18.7854C17.0497 18.2701 16.8295 17.7729 16.6949 17.2506C16.6559 17.0993 16.8369 17.0243 16.9282 17.1511V17.1511V17.1511C17.0017 17.2532 17.1455 17.2063 17.1304 17.0814C17.1266 17.0493 17.1224 17.0176 17.1183 16.9863V16.9863C17.1113 16.9329 17.1045 16.8805 17.0993 16.8288C17.0806 16.6418 17.27 16.5746 17.3897 16.7195V16.7195V16.7195C17.542 16.904 17.7459 16.766 17.6902 16.5334C17.6834 16.5046 17.6764 16.4756 17.6693 16.4462L17.6693 16.4462L17.6693 16.4461L17.6693 16.4461V16.4461C17.6425 16.3342 17.771 16.2515 17.862 16.3219L18.3325 16.6864C18.361 16.7084 18.4007 16.7084 18.4291 16.6863V16.6863C18.4577 16.6641 18.4674 16.6253 18.4528 16.5922L18.286 16.2149C18.217 16.0587 18.3577 15.9187 18.5031 16.0081V16.0081C18.5708 16.0497 18.6362 16.0899 18.7033 16.1233C18.8173 16.1801 18.8996 16.0639 18.8285 15.9581V15.9581L18.8285 15.9581L18.8285 15.9581L18.8285 15.9581L18.8285 15.9581V15.9581C18.6501 15.6926 18.9103 15.4181 19.0786 15.6901C19.1267 15.7679 19.1656 15.856 19.2046 15.9446L19.2147 15.9675L19.7682 17.2195C20.0625 17.8854 20.9968 17.9234 21.3472 17.2852V17.2852L21.3472 17.2851L21.3472 17.2851C22.0606 15.9855 22.7414 14.7453 23.3545 13.4701C23.8454 12.453 23.5212 11.4165 22.7734 10.6166C22.0257 9.8167 21.0642 9.56919 20.0046 9.8737C19.6475 9.97549 19.3021 10.1159 18.9485 10.2597L18.9485 10.2597L18.9485 10.2597L18.9485 10.2597L18.9485 10.2597C18.9157 10.2731 18.8828 10.2864 18.8499 10.2998C18.6545 10.379 18.4817 10.2395 18.5933 10.0606V10.0606V10.0606C18.7025 9.88565 18.5287 9.76479 18.3469 9.86233L18.1402 9.97328L18.1127 9.9929C18.0599 10.0305 17.9874 9.98837 17.994 9.92387V9.92387C17.9946 9.91814 17.9958 9.9125 17.9977 9.90705L18.1188 9.55478C18.1712 9.40241 18.0307 9.29385 17.9136 9.40455V9.40455C17.8543 9.46067 17.7963 9.51554 17.7327 9.56271C17.6216 9.64524 17.4981 9.53649 17.5222 9.40016L17.5355 9.32492C17.5662 9.15165 17.3483 9.04895 17.2341 9.18286V9.18286C17.1305 9.30443 16.9317 9.23212 16.931 9.07237C16.9308 9.0349 16.9307 8.99824 16.9306 8.96196C16.9301 8.80537 16.7695 8.71698 16.6869 8.85005C16.6672 8.88186 16.6497 8.91413 16.6326 8.9457C16.5913 9.02187 16.5521 9.09402 16.4892 9.14598V9.14598C16.4446 9.1908 16.3635 9.17077 16.338 9.11288C16.3359 9.10811 16.3338 9.10334 16.3317 9.09856C16.3138 9.04549 16.3094 8.98772 16.3051 8.92992C16.3046 8.92345 16.3041 8.91697 16.3036 8.91051C16.2866 8.69477 16.0311 8.6605 15.9602 8.86495V8.86495C15.9401 8.92278 15.9198 8.98142 15.8852 9.03033C15.8283 9.11099 15.7193 9.05634 15.6898 8.96209V8.96209L15.6896 8.96153C15.6756 8.91675 15.6616 8.8719 15.6474 8.82659C15.596 8.6623 15.3603 8.66999 15.3189 8.83705V8.83705C15.28 8.99373 15.0646 9.0131 14.9993 8.86545V8.86545C14.9283 8.7048 14.6885 8.74854 14.6734 8.92353V8.92353L14.6734 8.92365V8.92365C14.6592 9.08824 14.4462 9.14547 14.3516 9.01005C14.3398 8.99315 14.328 8.97626 14.3162 8.95934V8.95934C14.2283 8.83366 14.0306 8.9014 14.0383 9.05453L14.043 9.14672C14.0507 9.29886 13.8644 9.37789 13.7604 9.26663V9.26663C13.6477 9.14617 13.2983 9.24987 13.1443 9.19081C13.1112 9.17812 13.0769 9.16291 13.0429 9.14779C13.0101 9.13326 12.9776 9.11883 12.9465 9.10681C11.0271 8.35876 9.10558 7.61504 7.18212 6.87567V6.87567ZM22.5744 8.89351V8.89351C22.8039 9.28527 23.3154 9.0753 23.1795 8.64209C23.0928 8.36571 23.0046 8.09253 22.917 7.82105L22.917 7.82102L22.917 7.821C22.7522 7.31037 22.5894 6.80575 22.4419 6.29724C22.29 5.77119 21.8976 5.56612 21.5207 5.74054C21.1438 5.91496 21.0697 6.30937 21.3546 6.80391C21.7551 7.49484 22.159 8.18428 22.5737 8.89221L22.5744 8.89351ZM24.5371 11.5162C24.4984 11.5028 24.4771 11.4614 24.4887 11.4221C24.5964 11.0588 24.7036 10.6954 24.8107 10.332C25.1529 9.17169 25.4951 8.01137 25.8524 6.85537C25.975 6.46166 26.2994 6.28049 26.6963 6.44848C27.1266 6.6303 27.1973 6.99322 26.9781 7.38021C26.3555 8.47866 25.7257 9.57377 25.0959 10.6688L25.0958 10.669L25.0956 10.6693L25.0954 10.6697L24.6284 11.482C24.6101 11.5138 24.5718 11.5281 24.5371 11.5162V11.5162ZM20.9259 13.6783C20.9259 13.6783 20.9259 13.6783 20.9259 13.6783C20.923 13.6834 20.92 13.6884 20.9171 13.6934C20.8179 13.8632 20.5661 13.85 20.4853 13.6708C20.4789 13.6565 20.4725 13.6424 20.4661 13.6283L20.4661 13.6282C20.3304 13.3275 20.2111 13.063 20.1026 12.7938C20.0304 12.6499 20.0151 12.4841 20.0599 12.3295C20.1046 12.1749 20.2061 12.0429 20.344 11.9598C20.4724 11.8636 20.6307 11.8159 20.7909 11.8251C20.9511 11.8342 21.1029 11.8997 21.2195 12.0099C21.5108 12.248 21.5363 12.5528 21.3815 12.8619C21.2487 13.1262 21.0988 13.3827 20.926 13.6782L20.9259 13.6783V13.6783Z" fill="#212121"/>
</svg>
